<?xml version="1.0" standalone="no"?>
<!DOCTYPE svg PUBLIC "-//W3C//DTD SVG 20010904//EN"
 "http://www.w3.org/TR/2001/REC-SVG-20010904/DTD/svg10.dtd">
<svg version="1.0" xmlns="http://www.w3.org/2000/svg"
 width="700.000000pt" height="700.000000pt" viewBox="0 0 700.000000 700.000000"
 preserveAspectRatio="xMidYMid meet">
<metadata>
Created by potrace 1.11, written by Peter Selinger 2001-2013
</metadata>
<g transform="translate(0.000000,700.000000) scale(0.100000,-0.100000)"
fill="#000000" stroke="none">
<path d="M3298 6996 c-1 -2 -41 -6 -88 -9 -92 -7 -209 -21 -305 -37 -76 -13
-286 -60 -295 -65 -4 -2 -20 -6 -36 -9 -41 -8 -252 -77 -361 -120 -92 -36
-332 -150 -428 -203 -274 -152 -559 -374 -796 -618 -405 -416 -695 -916 -853
-1468 -34 -117 -90 -378 -100 -462 -3 -22 -8 -67 -12 -100 -4 -33 -9 -73 -11
-90 -8 -60 -10 -492 -2 -580 12 -133 22 -220 34 -285 1 -8 6 -35 10 -60 9 -56
13 -78 20 -110 3 -14 7 -34 9 -45 15 -69 71 -268 105 -367 77 -226 197 -480
321 -683 l67 -110 -218 -656 c-198 -594 -218 -658 -209 -690 14 -50 48 -79 96
-80 27 -1 235 64 679 212 352 117 646 212 653 211 7 -2 56 -30 109 -63 186
-116 459 -244 681 -320 104 -35 310 -94 366 -105 12 -2 32 -6 46 -9 32 -7 54
-11 110 -20 25 -4 54 -9 65 -11 26 -5 76 -12 150 -20 33 -3 92 -9 130 -13 73
-8 545 -6 580 2 11 3 54 8 95 12 41 4 84 9 95 11 11 2 38 6 60 9 22 3 47 7 55
10 8 2 31 7 50 10 223 34 579 152 848 281 265 127 596 346 787 520 168 153
338 331 425 444 19 25 37 47 41 50 3 3 42 57 87 120 204 291 362 604 468 930
33 99 80 274 90 330 3 14 7 32 9 40 2 8 7 31 10 50 3 19 10 58 15 85 13 65 29
189 38 290 14 162 5 665 -13 718 -2 7 -6 35 -9 62 -6 49 -11 84 -21 135 -3 14
-8 39 -11 55 -77 439 -284 925 -562 1325 -59 84 -204 270 -250 320 -89 95
-217 222 -289 286 -143 127 -152 134 -268 219 -449 327 -985 551 -1510 631
-27 4 -52 8 -55 9 -3 1 -41 5 -85 10 -44 4 -89 10 -100 12 -26 4 -512 13 -517
9z m467 -230 c258 -23 535 -80 769 -158 197 -66 465 -186 588 -264 21 -13 40
-24 43 -24 10 0 206 -132 304 -205 206 -153 471 -411 596 -580 17 -22 32 -42
35 -45 12 -11 130 -179 172 -245 201 -318 372 -741 437 -1085 20 -103 22 -115
36 -220 106 -761 -68 -1551 -483 -2200 -58 -90 -206 -291 -257 -349 -200 -228
-389 -403 -595 -550 -99 -71 -236 -161 -245 -161 -3 0 -22 -11 -43 -23 -125
-79 -496 -246 -577 -261 -5 -1 -14 -4 -20 -8 -13 -8 -212 -63 -296 -82 -72
-16 -105 -23 -158 -32 -18 -3 -41 -7 -50 -9 -9 -2 -44 -6 -76 -10 -33 -4 -69
-9 -80 -11 -110 -22 -595 -22 -710 0 -11 2 -54 7 -95 12 -41 4 -77 8 -80 9 -3
1 -25 5 -50 9 -25 5 -54 10 -65 12 -11 2 -33 7 -50 10 -215 38 -606 180 -825
299 -47 25 -98 53 -115 61 -16 8 -79 46 -140 84 -74 48 -119 70 -140 70 -17 0
-284 -85 -593 -188 -309 -103 -562 -183 -562 -177 0 6 83 260 185 565 102 305
185 569 185 585 0 21 -25 72 -81 161 -89 142 -197 349 -255 489 -39 96 -101
270 -114 320 -4 17 -19 73 -33 125 -29 108 -63 286 -73 374 -3 33 -8 69 -10
80 -16 83 -22 426 -11 592 59 843 456 1647 1092 2210 119 106 126 111 258 207
316 231 670 401 1055 507 137 37 314 73 422 86 30 3 64 8 75 10 11 2 72 7 135
10 63 4 116 7 117 9 5 4 311 -3 378 -9z"/>
<path d="M3428 6521 l-33 -29 -3 -541 -3 -541 -579 0 -580 0 26 68 c14 37 32
83 39 102 45 124 171 374 258 510 106 168 113 188 78 246 -45 74 -136 67 -196
-14 -129 -177 -295 -509 -401 -804 l-39 -108 -417 0 c-235 0 -427 -4 -441 -9
-85 -32 -97 -146 -21 -196 27 -18 52 -19 417 -19 213 -1 387 -4 387 -7 0 -4
-18 -82 -40 -173 -22 -92 -43 -184 -46 -204 -3 -20 -10 -57 -15 -82 -28 -125
-67 -405 -85 -600 -3 -36 -7 -83 -9 -105 -3 -22 -7 -110 -11 -195 -3 -85 -7
-166 -8 -180 l-1 -25 -599 -5 -598 -5 -29 -33 c-40 -45 -40 -99 0 -144 l29
-33 599 -5 598 -5 1 -45 c3 -78 15 -313 18 -350 2 -19 7 -71 10 -115 7 -82 11
-120 21 -190 3 -22 7 -60 10 -85 21 -172 69 -421 127 -654 16 -65 26 -121 23
-125 -4 -3 -179 -6 -390 -6 -426 -1 -422 0 -451 -70 -24 -59 3 -123 63 -146
14 -5 206 -9 441 -9 l417 0 44 -123 c24 -67 52 -140 62 -162 81 -185 105 -237
154 -326 30 -56 55 -104 55 -106 0 -2 33 -55 74 -118 75 -114 108 -145 158
-145 33 0 87 36 98 66 19 50 11 79 -52 177 -137 214 -258 459 -344 700 l-13
37 579 0 580 0 0 -531 c0 -580 -1 -569 58 -597 45 -21 88 -15 124 17 l33 29 3
541 3 541 579 0 580 0 -26 -68 c-14 -37 -32 -83 -39 -103 -7 -20 -25 -61 -38
-90 -14 -30 -37 -79 -50 -110 -35 -79 -128 -246 -203 -363 -70 -108 -77 -140
-45 -192 41 -67 129 -70 179 -6 78 99 219 347 294 516 22 50 48 109 58 131 9
22 37 95 61 162 l44 123 418 0 c357 0 424 2 452 15 75 36 80 145 8 192 -23 15
-65 17 -414 17 -214 0 -389 4 -389 9 0 4 12 54 26 110 29 116 89 400 99 467 3
25 11 74 16 110 12 77 16 108 24 175 3 28 8 61 10 75 2 14 7 63 11 110 3 47 8
99 10 115 2 17 6 104 9 195 3 91 8 175 11 187 l4 23 596 2 596 3 30 34 c27 30
30 39 25 79 -3 30 -13 53 -31 71 l-26 26 -592 3 c-411 2 -594 6 -599 13 -3 6
-7 48 -8 93 -3 119 -17 350 -26 426 -2 19 -7 60 -10 90 -3 30 -8 71 -10 90 -3
19 -7 55 -10 80 -3 25 -10 70 -15 100 -5 30 -12 71 -15 90 -5 32 -31 176 -41
225 -2 11 -20 88 -40 170 -20 83 -38 161 -41 175 l-5 25 390 0 c434 1 428 0
458 70 24 59 -3 123 -63 146 -14 5 -206 9 -441 9 l-417 0 -33 93 c-80 222
-168 419 -273 603 -82 145 -154 251 -180 265 -59 31 -126 13 -154 -41 -26 -50
-18 -78 52 -189 138 -220 254 -455 339 -693 l13 -38 -579 0 -579 0 -3 541 -3
541 -33 29 c-24 22 -42 29 -72 29 -30 0 -48 -7 -72 -29z m-40 -2123 l2 -788
-731 0 -731 0 7 164 c3 89 7 174 10 187 2 13 6 62 10 109 4 47 8 99 10 115 3
33 15 136 20 175 2 14 7 48 11 75 3 28 8 59 10 70 6 32 23 127 29 165 3 19 8
42 10 50 2 8 7 31 10 50 3 19 20 91 36 160 17 69 32 130 33 135 1 6 10 35 19
65 l16 56 613 -1 613 0 3 -787z m1472 722 c23 -79 50 -186 56 -220 3 -14 7
-33 10 -42 3 -9 7 -27 9 -40 3 -13 14 -68 24 -123 11 -55 23 -118 26 -140 4
-22 9 -49 10 -60 6 -30 26 -184 31 -230 2 -22 6 -58 9 -80 3 -22 7 -74 10
-115 3 -41 8 -91 10 -110 2 -19 7 -106 11 -192 l6 -158 -731 0 -731 0 0 784
c0 559 3 785 11 788 6 2 283 4 615 4 l604 0 20 -66z m-1472 -2517 l-3 -788
-608 -1 c-334 0 -611 2 -616 5 -16 11 -125 478 -146 626 -3 22 -9 63 -15 90
-5 28 -12 75 -15 105 -3 30 -7 66 -9 80 -6 38 -16 128 -21 200 -3 36 -8 88
-10 115 -3 28 -8 119 -11 203 l-6 152 731 0 731 0 -2 -787z m1678 640 c-4 -82
-8 -170 -11 -198 -2 -27 -6 -83 -10 -123 -7 -91 -14 -158 -20 -197 -2 -16 -7
-52 -10 -80 -20 -166 -67 -409 -139 -710 -1 -5 -10 -35 -19 -65 l-16 -56 -613
1 -613 0 -3 788 -2 787 731 0 731 0 -6 -147z"/>
</g>
</svg>
